<mxfile host="app.diagrams.net" modified="2020-10-07T05:50:05.325Z" agent="5.0 (Windows)" etag="iVjdYCg-xsZP3_3oMjPS" version="13.7.7" type="github">
  <diagram id="TwOUgwQ_L8dcKbeYbcKS" name="Page-1">
    <mxGraphModel dx="910" dy="487" grid="1" gridSize="10" guides="1" tooltips="1" connect="1" arrows="1" fold="1" page="1" pageScale="1" pageWidth="1169" pageHeight="827" math="0" shadow="0">
      <root>
        <mxCell id="0" />
        <mxCell id="1" parent="0" />
        <mxCell id="Q3lczVQ_mJhsyo0WWtEm-1" value="Research - Anticipatory/Topical/Legal Research Process" style="swimlane;html=1;childLayout=stackLayout;resizeParent=1;resizeParentMax=0;horizontal=1;startSize=20;horizontalStack=0;" vertex="1" parent="1">
          <mxGeometry x="10" y="10" width="1150" height="670" as="geometry" />
        </mxCell>
        <mxCell id="Q3lczVQ_mJhsyo0WWtEm-2" value="MCA/Staff" style="swimlane;html=1;startSize=20;horizontal=0;" vertex="1" parent="Q3lczVQ_mJhsyo0WWtEm-1">
          <mxGeometry y="20" width="1150" height="220" as="geometry" />
        </mxCell>
        <mxCell id="Q3lczVQ_mJhsyo0WWtEm-5" value="Start" style="rounded=1;whiteSpace=wrap;html=1;" vertex="1" parent="Q3lczVQ_mJhsyo0WWtEm-2">
          <mxGeometry x="160" y="10" width="100" height="40" as="geometry" />
        </mxCell>
        <mxCell id="Q3lczVQ_mJhsyo0WWtEm-8" value="&lt;br/&gt;&lt;p style=&quot;margin-bottom: 0in&quot;&gt;Request for Research&lt;/p&gt;&lt;br/&gt;" style="rounded=0;whiteSpace=wrap;html=1;" vertex="1" parent="Q3lczVQ_mJhsyo0WWtEm-2">
          <mxGeometry x="150" y="120" width="120" height="60" as="geometry" />
        </mxCell>
        <mxCell id="Q3lczVQ_mJhsyo0WWtEm-7" value="" style="edgeStyle=orthogonalEdgeStyle;rounded=0;orthogonalLoop=1;jettySize=auto;html=1;entryX=0.5;entryY=0;entryDx=0;entryDy=0;" edge="1" parent="Q3lczVQ_mJhsyo0WWtEm-2" source="Q3lczVQ_mJhsyo0WWtEm-5" target="Q3lczVQ_mJhsyo0WWtEm-8">
          <mxGeometry relative="1" as="geometry">
            <mxPoint x="210" y="120" as="targetPoint" />
          </mxGeometry>
        </mxCell>
        <mxCell id="Q3lczVQ_mJhsyo0WWtEm-3" value="Clerk" style="swimlane;html=1;startSize=20;horizontal=0;" vertex="1" parent="Q3lczVQ_mJhsyo0WWtEm-1">
          <mxGeometry y="240" width="1150" height="230" as="geometry" />
        </mxCell>
        <mxCell id="Q3lczVQ_mJhsyo0WWtEm-9" value="Research Approved?" style="rhombus;whiteSpace=wrap;html=1;rounded=0;" vertex="1" parent="Q3lczVQ_mJhsyo0WWtEm-3">
          <mxGeometry x="170" y="24" width="80" height="80" as="geometry" />
        </mxCell>
        <mxCell id="Q3lczVQ_mJhsyo0WWtEm-12" value="" style="edgeStyle=orthogonalEdgeStyle;rounded=0;orthogonalLoop=1;jettySize=auto;html=1;" edge="1" parent="Q3lczVQ_mJhsyo0WWtEm-3" source="Q3lczVQ_mJhsyo0WWtEm-9" target="Q3lczVQ_mJhsyo0WWtEm-11">
          <mxGeometry relative="1" as="geometry" />
        </mxCell>
        <mxCell id="Q3lczVQ_mJhsyo0WWtEm-13" value="yes" style="text;html=1;strokeColor=none;fillColor=none;align=center;verticalAlign=middle;whiteSpace=wrap;rounded=0;" vertex="1" parent="Q3lczVQ_mJhsyo0WWtEm-3">
          <mxGeometry x="207" y="110" width="40" height="20" as="geometry" />
        </mxCell>
        <mxCell id="Q3lczVQ_mJhsyo0WWtEm-11" value="Notify research office" style="whiteSpace=wrap;html=1;rounded=0;" vertex="1" parent="Q3lczVQ_mJhsyo0WWtEm-3">
          <mxGeometry x="150" y="149" width="120" height="60" as="geometry" />
        </mxCell>
        <mxCell id="Q3lczVQ_mJhsyo0WWtEm-4" value="Research Office" style="swimlane;html=1;startSize=20;horizontal=0;" vertex="1" parent="Q3lczVQ_mJhsyo0WWtEm-1">
          <mxGeometry y="470" width="1150" height="200" as="geometry" />
        </mxCell>
        <mxCell id="Q3lczVQ_mJhsyo0WWtEm-14" value="&lt;br/&gt;&lt;p style=&quot;margin-bottom: 0in&quot;&gt;Drafting of Research survey tool&lt;/p&gt;&lt;br/&gt;" style="whiteSpace=wrap;html=1;rounded=0;" vertex="1" parent="Q3lczVQ_mJhsyo0WWtEm-4">
          <mxGeometry x="150" y="59" width="120" height="60" as="geometry" />
        </mxCell>
        <mxCell id="Q3lczVQ_mJhsyo0WWtEm-24" value="End" style="rounded=1;whiteSpace=wrap;html=1;" vertex="1" parent="Q3lczVQ_mJhsyo0WWtEm-4">
          <mxGeometry x="950" y="69" width="100" height="40" as="geometry" />
        </mxCell>
        <mxCell id="Q3lczVQ_mJhsyo0WWtEm-10" value="" style="edgeStyle=orthogonalEdgeStyle;rounded=0;orthogonalLoop=1;jettySize=auto;html=1;" edge="1" parent="Q3lczVQ_mJhsyo0WWtEm-1" source="Q3lczVQ_mJhsyo0WWtEm-8" target="Q3lczVQ_mJhsyo0WWtEm-9">
          <mxGeometry relative="1" as="geometry" />
        </mxCell>
        <mxCell id="Q3lczVQ_mJhsyo0WWtEm-15" value="" style="edgeStyle=orthogonalEdgeStyle;rounded=0;orthogonalLoop=1;jettySize=auto;html=1;" edge="1" parent="Q3lczVQ_mJhsyo0WWtEm-1" source="Q3lczVQ_mJhsyo0WWtEm-11" target="Q3lczVQ_mJhsyo0WWtEm-14">
          <mxGeometry relative="1" as="geometry" />
        </mxCell>
        <mxCell id="Q3lczVQ_mJhsyo0WWtEm-19" value="" style="edgeStyle=orthogonalEdgeStyle;rounded=0;orthogonalLoop=1;jettySize=auto;html=1;" edge="1" parent="1" source="Q3lczVQ_mJhsyo0WWtEm-16" target="Q3lczVQ_mJhsyo0WWtEm-18">
          <mxGeometry relative="1" as="geometry" />
        </mxCell>
        <mxCell id="Q3lczVQ_mJhsyo0WWtEm-16" value="&lt;br/&gt;&lt;p style=&quot;margin-bottom: 0in&quot;&gt;Submission of survey feedback&lt;/p&gt;&lt;br/&gt;" style="whiteSpace=wrap;html=1;rounded=0;" vertex="1" parent="1">
          <mxGeometry x="360" y="539" width="120" height="60" as="geometry" />
        </mxCell>
        <mxCell id="Q3lczVQ_mJhsyo0WWtEm-17" value="" style="edgeStyle=orthogonalEdgeStyle;rounded=0;orthogonalLoop=1;jettySize=auto;html=1;" edge="1" parent="1" source="Q3lczVQ_mJhsyo0WWtEm-14" target="Q3lczVQ_mJhsyo0WWtEm-16">
          <mxGeometry relative="1" as="geometry" />
        </mxCell>
        <mxCell id="Q3lczVQ_mJhsyo0WWtEm-21" value="" style="edgeStyle=orthogonalEdgeStyle;rounded=0;orthogonalLoop=1;jettySize=auto;html=1;" edge="1" parent="1" source="Q3lczVQ_mJhsyo0WWtEm-18" target="Q3lczVQ_mJhsyo0WWtEm-20">
          <mxGeometry relative="1" as="geometry" />
        </mxCell>
        <mxCell id="Q3lczVQ_mJhsyo0WWtEm-18" value="&lt;br/&gt;&lt;p style=&quot;margin-bottom: 0in&quot;&gt;Data Analysis&lt;/p&gt;&lt;br/&gt;" style="whiteSpace=wrap;html=1;rounded=0;" vertex="1" parent="1">
          <mxGeometry x="560" y="539" width="120" height="60" as="geometry" />
        </mxCell>
        <mxCell id="Q3lczVQ_mJhsyo0WWtEm-23" value="" style="edgeStyle=orthogonalEdgeStyle;rounded=0;orthogonalLoop=1;jettySize=auto;html=1;entryX=0;entryY=0.5;entryDx=0;entryDy=0;" edge="1" parent="1" source="Q3lczVQ_mJhsyo0WWtEm-20" target="Q3lczVQ_mJhsyo0WWtEm-24">
          <mxGeometry relative="1" as="geometry">
            <mxPoint x="980" y="569" as="targetPoint" />
          </mxGeometry>
        </mxCell>
        <mxCell id="Q3lczVQ_mJhsyo0WWtEm-20" value="&lt;br/&gt;&lt;p style=&quot;margin-bottom: 0in&quot;&gt;Publication of Research Report&lt;/p&gt;&lt;br/&gt;" style="whiteSpace=wrap;html=1;rounded=0;" vertex="1" parent="1">
          <mxGeometry x="760" y="539" width="120" height="60" as="geometry" />
        </mxCell>
        <mxCell id="Q3lczVQ_mJhsyo0WWtEm-28" value="" style="edgeStyle=orthogonalEdgeStyle;rounded=0;orthogonalLoop=1;jettySize=auto;html=1;entryX=1;entryY=0.5;entryDx=0;entryDy=0;" edge="1" parent="1" source="Q3lczVQ_mJhsyo0WWtEm-25" target="Q3lczVQ_mJhsyo0WWtEm-8">
          <mxGeometry relative="1" as="geometry">
            <mxPoint x="540" y="314" as="targetPoint" />
            <Array as="points">
              <mxPoint x="380" y="180" />
            </Array>
          </mxGeometry>
        </mxCell>
        <mxCell id="Q3lczVQ_mJhsyo0WWtEm-25" value="Note to requester" style="shape=document;whiteSpace=wrap;html=1;boundedLbl=1;rounded=0;" vertex="1" parent="1">
          <mxGeometry x="320" y="274" width="120" height="80" as="geometry" />
        </mxCell>
        <mxCell id="Q3lczVQ_mJhsyo0WWtEm-26" value="" style="edgeStyle=orthogonalEdgeStyle;rounded=0;orthogonalLoop=1;jettySize=auto;html=1;" edge="1" parent="1" source="Q3lczVQ_mJhsyo0WWtEm-9" target="Q3lczVQ_mJhsyo0WWtEm-25">
          <mxGeometry relative="1" as="geometry" />
        </mxCell>
      </root>
    </mxGraphModel>
  </diagram>
</mxfile>
